PathFileType	4	(X/Y/Z)	Patient4_TMGait_0pt6_01_right_42.trc.trc
DataRate	CameraRate	NumFrames	NumMarkers	Units	OrigDataRate	OrigDataStartFrame	OrigNumFrames
82.840236686390	82.840236686390	4	33	mm	82.840236686390	89	       141
Frame#	Time	Sacral			L.Shoulder			Chest			R.Shoulder			Neck			R.ASIS			L.ASIS			R.Thigh.Superior			R.Thigh.Lateral			R.Thigh.Inferior			R.Patella			L.Thigh.Superior			L.Thigh.Lateral			L.Thigh.Inferior			L.Patella			L.Shank.Superior			L.Shank.Lateral			L.Shank.Inferior			R.Shank.Superior			R.Shank.Lateral			R.Shank.Inferior			R.Heel			R.Midfoot.Superior			R.Midfoot.Lateral			R.Toe			L.Heel			L.Midfoot.Lateral			L.Midfoot.Superior			L.Toe			L.Elbow			L.Wrist			R.Elbow			R.Wrist			
		X1	Y1	Z1	X2	Y2	Z2	X3	Y3	Z3	X4	Y4	Z4	X5	Y5	Z5	X6	Y6	Z6	X7	Y7	Z7	X8	Y8	Z8	X9	Y9	Z9	X10	Y10	Z10	X11	Y11	Z11	X12	Y12	Z12	X13	Y13	Z13	X14	Y14	Z14	X15	Y15	Z15	X16	Y16	Z16	X17	Y17	Z17	X18	Y18	Z18	X19	Y19	Z19	X20	Y20	Z20	X21	Y21	Z21	X22	Y22	Z22	X23	Y23	Z23	X24	Y24	Z24	X25	Y25	Z25	X26	Y26	Z26	X27	Y27	Z27	X28	Y28	Z28	X29	Y29	Z29	X30	Y30	Z30	X31	Y31	Z31	X32	Y32	Z32	X33	Y33	Z33	

89	51.572285714286	773.860265059670	1007.318449563058	439.464919696799	931.136275491069	1424.235070350265	234.141104926355	1044.687755566677	1364.628489634403	391.364843397079	972.121021308191	1447.791046553706	564.114724904043	920.559574749722	1492.708879284987	384.114603427892	1001.466937405440	937.398608155443	545.481722694452	979.347981658717	961.332483732705	273.109858773613	1053.284074475231	739.085583424199	517.677143314665	981.400427317182	623.469944845296	580.952369885389	1066.506666858849	570.639195506087	505.310691463909	1059.709617379267	456.261050763205	522.184728208716	1039.905023144352	759.414208738088	295.966920981019	957.595493508191	638.390049233833	243.568407912580	1052.033291048289	568.555469731359	302.181114053424	1057.840507809112	499.752861609560	310.582116687328	1037.398753308516	426.295749734132	304.693641759595	955.171789508668	302.630841689515	264.671173375839	1026.068985464279	199.317543851180	331.695453541922	975.392115135719	393.403218504849	521.564812877677	847.978682275185	363.837959678342	574.622415929327	825.777238968878	260.055924103846	520.256698275672	617.622282591980	206.776069216866	477.927455732109	785.052797787285	155.703956192316	536.623259371279	673.085783341814	160.960219127539	562.853595904308	847.071089980328	51.214945830779	583.688114357710	915.927638882672	38.377753272009	387.606923072617	984.122546468913	34.568579975865	301.455256971304	1066.904885071016	98.757669774703	320.591639059515	1194.132131863673	51.015905050857	286.602427122150	894.528846547585	1063.615135388852	137.644996616295	940.633285269353	808.548765912887	145.508817360393	1058.045721900511	1112.943212780015	679.163913108166	1285.332589224379	1132.411510989875	574.536856650051	
90	51.584357142857	772.942819491742	1007.883280826810	437.050623037848	932.583977814823	1425.156934943645	232.968614588290	1044.391430767602	1365.503793449218	391.386825489757	970.045256886983	1448.418107885477	563.577410949334	920.303802436611	1493.658045419779	382.975356976738	1000.214726058972	938.604114733735	544.262664394537	979.547050477867	962.231317132502	272.064353727336	1057.881628675337	743.714200508681	516.762398722449	989.758520871198	626.586911084174	580.488885901433	1076.785049360913	575.855001109398	505.065222738783	1072.556605588925	460.452405356980	522.222684310592	1037.889368009416	758.694483014126	295.342489599934	954.911523050501	638.592805682226	242.731502116805	1047.919474099013	567.853121561337	302.234872792698	1052.769609661096	499.098739264851	310.774845543988	1032.223996177150	425.883860534569	304.752851109465	949.708912205282	302.561040591829	264.353424014656	1019.574930209778	199.000217607474	331.944502886075	987.123294326872	397.569131341741	521.488641305785	858.639812494524	371.045334603173	573.900673490644	834.372151642947	267.666696489570	520.016935537734	625.609124663953	219.732213048674	476.494622854447	791.048159625512	163.755129078891	536.449778278887	679.015419810561	172.427085740166	561.999299437124	849.665591886871	56.819404203811	584.487661370769	908.587655467981	38.345207606291	387.584780450946	976.772916727384	34.540773344579	301.464862283826	1059.674118269136	98.519643839260	320.748595086270	1186.845697603440	50.689868964812	286.576992395813	903.821547244656	1064.400178582512	133.762741814034	958.324479568239	810.779536846509	141.338556615891	1045.638057772470	1110.588495845932	679.299319140175	1276.480544355742	1110.786158401843	578.920369505829	
91	51.596428571429	771.962028015875	1008.299206317230	434.742743236850	933.848225258137	1426.066657295720	232.052583207391	1044.005711148960	1366.238617791123	391.518409521842	968.006991984565	1448.733702097607	563.270817780451	920.046499642361	1494.482772626657	382.160866608489	998.959087487234	939.723187087483	542.914307172112	979.604170636576	962.953870403470	270.926211679697	1062.136932546409	748.418902057861	515.599096081062	997.984082257726	630.000870885184	579.966778308166	1086.555935513194	581.419359230036	504.481830365880	1085.094315527175	465.123539043564	521.885677518736	1036.066356346714	758.054949281825	295.001086614503	952.567803280368	638.747844474117	241.947511969232	1044.143995358654	567.168653966989	302.424783941150	1048.085859492403	498.425510856832	311.122112025792	1027.402350069454	425.432479219751	304.954445189004	944.586864425055	302.497365300718	264.071302247945	1013.265391364887	198.646578698500	332.292568835775	998.810543687681	402.022351081969	521.278278420643	869.664280556932	377.969869851878	573.510412210463	843.494946642361	275.025524142490	520.026266094827	634.302556433597	231.568444622609	476.111166077241	798.020959343921	171.433025980706	536.487003610470	686.179580537886	182.869537703050	561.804036126479	853.877748563343	62.580788062012	584.895099287605	901.279343630594	38.324279686265	387.582036096225	969.453107763145	34.536369327207	301.495506501538	1052.493073325533	98.272045415340	320.953911814163	1179.594237348917	50.315128560042	286.565119059807	913.061179602050	1065.426743207177	130.086793646447	976.149707808498	813.591487133353	137.317999382621	1033.196979188559	1108.182909853377	679.496609090798	1266.194561447724	1088.219819504713	584.213513894735	
92	51.608500000000	770.925089867305	1008.593428271140	432.541138811050	934.922546862473	1426.978056402951	231.374065156594	1043.540418074248	1366.844371624562	391.734235614985	966.034731453729	1448.768323384662	563.163246803430	919.807452503872	1495.196434047257	381.642825576922	997.712165132101	940.789460792286	541.496920366303	979.540856859166	963.510771225903	269.727419689606	1066.026845227486	753.180412050225	514.168712599111	1006.053590871392	633.677560484764	579.345000313572	1095.793164034030	587.272527158117	503.515588581040	1097.269755863139	470.210475950822	521.147312529332	1034.485356133636	757.488840263336	294.890111185942	950.544461654633	638.850331204761	241.236680986159	1040.726868664692	566.492981780403	302.720929963882	1043.816488059466	497.729678440654	311.614002584911	1022.946081271199	424.938219833327	305.289888880356	939.795533809663	302.446931758763	263.830568097139	1007.132949521925	198.257700342759	332.728538419168	1010.395601446682	406.703579885632	520.895104434831	880.970131980903	384.501275908388	573.416301474061	853.106259919231	281.988120580553	520.251177134349	643.603318350500	242.112729487264	476.736851976359	805.959761921931	178.544139950822	536.745990772904	694.491658521416	192.108586182353	562.257112979204	859.701829430818	68.225740590171	584.954794895904	893.996286431754	38.312347181972	387.595069888036	962.161148443115	34.555036458603	301.544553721411	1045.350363260854	98.027935306543	321.201671293622	1172.372639280909	49.915241832837	286.569074831651	922.185703480526	1066.710101089445	126.628930030348	994.029312198295	817.031357584564	133.465548052681	1020.814350347324	1105.768493253934	679.731730831451	1254.324534302464	1064.874248328264	590.374178120699	
